<svg width="26" height="24" viewBox="0 0 26 24" fill="none" xmlns="http://www.w3.org/2000/svg">
<path d="M14.7007 11.0181L19.2393 8.39775C19.6198 8.17808 20.1063 8.30844 20.326 8.68892L20.4227 8.85641C21.0482 9.93988 21.0715 11.2692 20.4842 12.3739C19.7688 13.7197 18.1343 14.283 16.7416 13.6637L14.7944 12.7979C14.0476 12.4658 13.9929 11.4268 14.7007 11.0181Z" stroke="#FEFEFE" stroke-width="2"/>
<path d="M14.7008 12.9816L19.2394 15.602C19.6199 15.8217 19.7503 16.3082 19.5306 16.6887L19.4339 16.8562C18.8084 17.9396 17.6688 18.6244 16.4185 18.6682C14.8952 18.7215 13.5902 17.5877 13.4301 16.072L13.2063 13.9527C13.1205 13.1399 13.993 12.573 14.7008 12.9816Z" stroke="#FEFEFE" stroke-width="2"/>
<path d="M13 13.9638V19.2045C13 19.6438 12.6438 20 12.2045 20H12.0111C10.76 20 9.59719 19.3555 8.93412 18.2946C8.12631 17.0021 8.45569 15.305 9.68835 14.4085L11.4118 13.155C12.0728 12.6743 13 13.1465 13 13.9638Z" stroke="#FEFEFE" stroke-width="2"/>
<path d="M11.2993 12.9819L6.7607 15.6023C6.38022 15.8219 5.8937 15.6916 5.67403 15.3111L5.57733 15.1436C4.95179 14.0601 4.92852 12.7308 5.51577 11.6261C6.2312 10.2803 7.86566 9.71699 9.25835 10.3363L11.2056 11.2021C11.9524 11.5342 12.0071 12.5732 11.2993 12.9819Z" stroke="#FEFEFE" stroke-width="2"/>
<path d="M11.2991 11.0181L6.76045 8.39775C6.37997 8.17808 6.24961 7.69156 6.46928 7.31108L6.56598 7.14359C7.19152 6.06012 8.33109 5.37533 9.58141 5.33155C11.1046 5.27821 12.4097 6.41204 12.5698 7.92779L12.7935 10.0471C12.8794 10.8599 12.0069 11.4268 11.2991 11.0181Z" stroke="#FEFEFE" stroke-width="2"/>
<path d="M13 10.0362V4.79549C13 4.35616 13.3562 4 13.7955 4H13.9889C15.24 4 16.4028 4.6445 17.0659 5.70541C17.8737 6.99791 17.5443 8.69505 16.3117 9.59153L14.5882 10.845C13.9272 11.3257 13 10.8535 13 10.0362Z" stroke="#FEFEFE" stroke-width="2"/>
</svg>
